# xmcd CD database file
#
# Track frame offsets:
#	150
#	14755
#	35608
#	53998
#	73455
#	87955
#	103019
#	119529
#	136361
#	155898
#	172693
#
# Disc length: 2605 seconds
#
# Revision: 0
# Processed by: cddbd v1.5.2PL0 Copyright (c) Steve Scherf et al.
# Submitted via: CDex 1.51
#
DISCID=a00a2b0b
DTITLE=Vicki Butler - Praise His Name
DYEAR=1900
DGENRE=Country
TTITLE0=Why Don't You Try Jesus
TTITLE1=Praise His Name
TTITLE2=Ten Thousand Angels Cried
TTITLE3=For Those Tears I Died
TTITLE4=Mary Did You Know
TTITLE5=One  Way
TTITLE6=It Was His Love
TTITLE7=Consider the Lilies
TTITLE8=Jesus, Lover of My Soul
TTITLE9=She Loved
TTITLE10=He Sends His Angels
EXTD=
EXTT0=
EXTT1=
EXTT2=
EXTT3=
EXTT4=
EXTT5=
EXTT6=
EXTT7=
EXTT8=
EXTT9=
EXTT10=
PLAYORDER=
